<svg xmlns="http://www.w3.org/2000/svg" xmlns:xlink="http://www.w3.org/1999/xlink" width="500" zoomAndPan="magnify" viewBox="0 0 375 374.999991" height="500" preserveAspectRatio="xMidYMid meet" version="1.0"><defs><g/><clipPath id="65322475cc"><path d="M 0.398438 17 L 371.441406 17 L 371.441406 145 L 0.398438 145 Z M 0.398438 17 " clip-rule="nonzero"/></clipPath><clipPath id="6724db780e"><path d="M 0.398438 8 L 87 8 L 87 96 L 0.398438 96 Z M 0.398438 8 " clip-rule="nonzero"/></clipPath><clipPath id="3bdc768a29"><rect x="0" width="372" y="0" height="128"/></clipPath><clipPath id="0ccd78e1e8"><path d="M 86 112 L 329 112 L 329 159.800781 L 86 159.800781 Z M 86 112 " clip-rule="nonzero"/></clipPath><clipPath id="dc5b7c4e18"><rect x="0" width="243" y="0" height="48"/></clipPath><clipPath id="84ffe1fb4d"><path d="M 144.308594 2.464844 L 170 2.464844 L 170 50.90625 L 144.308594 50.90625 Z M 144.308594 2.464844 " clip-rule="nonzero"/></clipPath><clipPath id="a3ea3cdaa4"><path d="M 158 2 L 192 2 L 192 57 L 158 57 Z M 158 2 " clip-rule="nonzero"/></clipPath><clipPath id="4a99a5bd9b"><path d="M 148.699219 8.515625 L 191.160156 0.285156 L 200.488281 48.40625 L 158.027344 56.636719 Z M 148.699219 8.515625 " clip-rule="nonzero"/></clipPath><clipPath id="5b8db722a4"><path d="M 148.699219 8.515625 L 191.160156 0.285156 L 200.488281 48.40625 L 158.027344 56.636719 Z M 148.699219 8.515625 " clip-rule="nonzero"/></clipPath><clipPath id="aaf8943b9b"><rect x="0" width="372" y="0" height="160"/></clipPath></defs><g transform="matrix(1, 0, 0, 1, 2, 109)"><g clip-path="url(#aaf8943b9b)"><g clip-path="url(#65322475cc)"><g transform="matrix(1, 0, 0, 1, 0, 17)"><g clip-path="url(#3bdc768a29)"><g clip-path="url(#6724db780e)"><g fill="#451b5d" fill-opacity="1"><g transform="translate(0.605435, 95.167801)"><g><path d="M 75.640625 -74.640625 L 70.984375 -62.40625 C 66.609375 -68.96875 62.046875 -73.882812 57.296875 -77.15625 C 52.546875 -80.4375 47.796875 -82.367188 43.046875 -82.953125 C 38.304688 -83.546875 33.707031 -83.046875 29.25 -81.453125 C 24.457031 -79.679688 20.675781 -76.945312 17.90625 -73.25 C 15.132812 -69.550781 13.222656 -65.347656 12.171875 -60.640625 C 11.117188 -55.929688 10.78125 -51.117188 11.15625 -46.203125 C 11.53125 -41.285156 12.476562 -36.726562 14 -32.53125 C 15.84375 -27.40625 18.675781 -22.800781 22.5 -18.71875 C 26.320312 -14.644531 30.710938 -11.429688 35.671875 -9.078125 C 40.640625 -6.722656 45.769531 -5.460938 51.0625 -5.296875 C 56.351562 -5.128906 61.4375 -6.304688 66.3125 -8.828125 L 66.3125 -27.609375 C 66.3125 -34.335938 65.640625 -38.832031 64.296875 -41.09375 C 62.953125 -43.363281 60.9375 -44.414062 58.25 -44.25 L 58.25 -45.390625 L 86.359375 -45.390625 L 86.359375 -44.25 C 83.671875 -44.414062 81.65625 -43.363281 80.3125 -41.09375 C 78.96875 -38.832031 78.296875 -34.335938 78.296875 -27.609375 L 78.296875 -3.78125 L 77.15625 -3.78125 C 76.40625 -6.71875 75.164062 -8.476562 73.4375 -9.0625 C 71.71875 -9.65625 69.722656 -9.113281 67.453125 -7.4375 C 64.003906 -4.914062 60.238281 -3.046875 56.15625 -1.828125 C 52.082031 -0.609375 47.863281 0 43.5 0 C 37.363281 0 31.644531 -1.070312 26.34375 -3.21875 C 21.050781 -5.363281 16.429688 -8.390625 12.484375 -12.296875 C 8.535156 -16.203125 5.46875 -20.78125 3.28125 -26.03125 C 1.09375 -31.289062 0 -36.988281 0 -43.125 C 0 -49.175781 1.132812 -54.804688 3.40625 -60.015625 C 5.675781 -65.222656 8.804688 -69.800781 12.796875 -73.75 C 16.785156 -77.707031 21.40625 -80.773438 26.65625 -82.953125 C 31.914062 -85.140625 37.53125 -86.234375 43.5 -86.234375 C 49.382812 -86.234375 55.160156 -85.222656 60.828125 -83.203125 C 66.503906 -81.191406 71.441406 -78.335938 75.640625 -74.640625 Z M 75.640625 -74.640625 "/></g></g></g></g><g fill="#451b5d" fill-opacity="1"><g transform="translate(86.20167, 95.167801)"><g><path d="M 20.046875 -68.328125 L 20.046875 -2.265625 L 41.09375 -2.265625 C 45.21875 -2.265625 49.335938 -3.164062 53.453125 -4.96875 C 57.578125 -6.78125 61.296875 -9.21875 64.609375 -12.28125 C 67.929688 -15.351562 70.347656 -18.820312 71.859375 -22.6875 L 73 -22.6875 L 65.6875 0 L 0 0 L 0 -1.140625 C 2.6875 -1.054688 4.703125 -2.144531 6.046875 -4.40625 C 7.390625 -6.675781 8.0625 -11.132812 8.0625 -17.78125 L 8.0625 -68.328125 C 8.0625 -75.054688 7.390625 -79.578125 6.046875 -81.890625 C 4.703125 -84.203125 2.6875 -85.273438 0 -85.109375 L 0 -86.234375 L 28.109375 -86.234375 L 28.109375 -85.109375 C 25.421875 -85.273438 23.40625 -84.203125 22.0625 -81.890625 C 20.71875 -79.578125 20.046875 -75.054688 20.046875 -68.328125 Z M 20.046875 -68.328125 "/></g></g></g><g fill="#451b5d" fill-opacity="1"><g transform="translate(160.830535, 95.167801)"><g><path d="M 43.125 -86.234375 C 37.15625 -86.234375 31.5625 -85.117188 26.34375 -82.890625 C 21.132812 -80.671875 16.554688 -77.582031 12.609375 -73.625 C 8.660156 -69.675781 5.570312 -65.09375 3.34375 -59.875 C 1.113281 -54.664062 0 -49.082031 0 -43.125 C 0 -37.15625 1.113281 -31.5625 3.34375 -26.34375 C 5.570312 -21.132812 8.660156 -16.554688 12.609375 -12.609375 C 16.554688 -8.660156 21.132812 -5.570312 26.34375 -3.34375 C 31.5625 -1.113281 37.15625 0 43.125 0 C 49.082031 0 54.664062 -1.113281 59.875 -3.34375 C 65.09375 -5.570312 69.675781 -8.660156 73.625 -12.609375 C 77.582031 -16.554688 80.671875 -21.132812 82.890625 -26.34375 C 85.117188 -31.5625 86.234375 -37.15625 86.234375 -43.125 C 86.234375 -49.082031 85.117188 -54.664062 82.890625 -59.875 C 80.671875 -65.09375 77.582031 -69.675781 73.625 -73.625 C 69.675781 -77.582031 65.09375 -80.671875 59.875 -82.890625 C 54.664062 -85.117188 49.082031 -86.234375 43.125 -86.234375 Z M 29.25 -81.453125 C 33.28125 -82.878906 37.394531 -83.234375 41.59375 -82.515625 C 45.800781 -81.804688 49.878906 -80.164062 53.828125 -77.59375 C 57.785156 -75.03125 61.359375 -71.710938 64.546875 -67.640625 C 67.742188 -63.566406 70.3125 -58.878906 72.25 -53.578125 C 74.175781 -48.285156 75.222656 -43.050781 75.390625 -37.875 C 75.554688 -32.707031 74.925781 -27.875 73.5 -23.375 C 72.070312 -18.882812 69.972656 -15 67.203125 -11.71875 C 64.429688 -8.445312 61.023438 -6.097656 56.984375 -4.671875 C 52.953125 -3.234375 48.8125 -2.875 44.5625 -3.59375 C 40.320312 -4.3125 36.242188 -5.953125 32.328125 -8.515625 C 28.421875 -11.078125 24.867188 -14.394531 21.671875 -18.46875 C 18.484375 -22.539062 15.925781 -27.226562 14 -32.53125 C 12.0625 -37.820312 11.007812 -43.070312 10.84375 -48.28125 C 10.675781 -53.5 11.285156 -58.332031 12.671875 -62.78125 C 14.054688 -67.238281 16.15625 -71.101562 18.96875 -74.375 C 21.789062 -77.65625 25.21875 -80.015625 29.25 -81.453125 Z M 29.25 -81.453125 "/></g></g></g><g fill="#451b5d" fill-opacity="1"><g transform="translate(243.653001, 95.167801)"><g><path d="M 35.546875 0 L 7.8125 -79.171875 C 7.144531 -81.109375 6.222656 -82.601562 5.046875 -83.65625 C 3.867188 -84.707031 2.1875 -85.191406 0 -85.109375 L 0 -86.234375 L 25.46875 -86.234375 L 25.46875 -85.109375 C 23.363281 -85.191406 21.828125 -84.75 20.859375 -83.78125 C 19.898438 -82.8125 19.796875 -81.273438 20.546875 -79.171875 L 47.15625 -3.15625 L 60.390625 -40.96875 L 47.03125 -79.171875 C 46.351562 -81.109375 45.425781 -82.601562 44.25 -83.65625 C 43.070312 -84.707031 41.390625 -85.191406 39.203125 -85.109375 L 39.203125 -86.234375 L 64.671875 -86.234375 L 64.671875 -85.109375 C 62.578125 -85.191406 61.046875 -84.75 60.078125 -83.78125 C 59.109375 -82.8125 59.003906 -81.273438 59.765625 -79.171875 L 86.359375 -3.15625 L 110.3125 -71.734375 C 111.070312 -73.921875 111.113281 -75.984375 110.4375 -77.921875 C 110.351562 -78.335938 110.226562 -78.773438 110.0625 -79.234375 C 109.894531 -79.703125 109.726562 -80.1875 109.5625 -80.6875 C 108.96875 -82.539062 108.0625 -83.757812 106.84375 -84.34375 C 105.625 -84.9375 104.050781 -85.191406 102.125 -85.109375 L 102.125 -86.234375 C 105.144531 -86.234375 108.671875 -86.234375 112.703125 -86.234375 C 116.742188 -86.234375 120.234375 -86.234375 123.171875 -86.234375 L 123.171875 -85.109375 C 119.390625 -85.191406 116.828125 -83.34375 115.484375 -79.5625 L 87.625 0 L 74.765625 0 L 61.65625 -37.578125 L 48.40625 0 Z M 35.546875 0 "/></g></g></g></g></g></g><g clip-path="url(#0ccd78e1e8)"><g transform="matrix(1, 0, 0, 1, 86, 112)"><g clip-path="url(#dc5b7c4e18)"><g fill="#451b5d" fill-opacity="1"><g transform="translate(1.299545, 35.508874)"><g><path d="M 0.28125 0 L 0.28125 -0.34375 L 1.15625 -0.65625 C 1.613281 -0.84375 1.96875 -1.066406 2.21875 -1.328125 C 2.476562 -1.597656 2.691406 -1.976562 2.859375 -2.46875 L 10.03125 -23.046875 L 12.984375 -23.046875 L 20.046875 -2.328125 C 20.234375 -1.816406 20.441406 -1.425781 20.671875 -1.15625 C 20.910156 -0.894531 21.269531 -0.671875 21.75 -0.484375 L 22.171875 -0.34375 L 22.171875 0 L 13.328125 0 L 13.328125 -0.34375 L 13.859375 -0.515625 C 14.347656 -0.703125 14.644531 -0.960938 14.75 -1.296875 C 14.851562 -1.640625 14.832031 -2.039062 14.6875 -2.5 L 13.046875 -7.515625 L 5.328125 -7.515625 L 3.65625 -2.609375 C 3.488281 -2.097656 3.429688 -1.691406 3.484375 -1.390625 C 3.546875 -1.085938 3.820312 -0.84375 4.3125 -0.65625 L 5.078125 -0.34375 L 5.078125 0 Z M 5.5625 -8.21875 L 12.84375 -8.21875 L 9.328125 -19.046875 Z M 5.5625 -8.21875 "/></g></g></g><g fill="#451b5d" fill-opacity="1"><g transform="translate(37.366806, 35.508874)"><g><path d="M 12.671875 0.625 C 10.304688 0.625 8.222656 0.132812 6.421875 -0.84375 C 4.617188 -1.832031 3.210938 -3.238281 2.203125 -5.0625 C 1.203125 -6.882812 0.703125 -9.035156 0.703125 -11.515625 C 0.703125 -13.929688 1.195312 -16.046875 2.1875 -17.859375 C 3.1875 -19.671875 4.628906 -21.082031 6.515625 -22.09375 C 8.410156 -23.101562 10.707031 -23.609375 13.40625 -23.609375 C 14.632812 -23.609375 15.773438 -23.46875 16.828125 -23.1875 C 17.890625 -22.90625 18.894531 -22.5 19.84375 -21.96875 L 19.984375 -17.09375 L 19.640625 -17.09375 L 17.6875 -20.71875 C 17.382812 -21.289062 17.101562 -21.703125 16.84375 -21.953125 C 16.59375 -22.210938 16.269531 -22.414062 15.875 -22.5625 C 15.5 -22.675781 15.15625 -22.757812 14.84375 -22.8125 C 14.53125 -22.875 14.117188 -22.90625 13.609375 -22.90625 C 12.171875 -22.90625 10.898438 -22.519531 9.796875 -21.75 C 8.691406 -20.988281 7.835938 -19.769531 7.234375 -18.09375 C 6.628906 -16.425781 6.328125 -14.234375 6.328125 -11.515625 C 6.328125 -8.828125 6.613281 -6.632812 7.1875 -4.9375 C 7.757812 -3.25 8.566406 -2.015625 9.609375 -1.234375 C 10.648438 -0.453125 11.859375 -0.0625 13.234375 -0.0625 C 13.441406 -0.0625 13.644531 -0.078125 13.84375 -0.109375 C 14.039062 -0.148438 14.226562 -0.195312 14.40625 -0.25 C 14.851562 -0.3125 15.144531 -0.492188 15.28125 -0.796875 C 15.414062 -1.097656 15.484375 -1.457031 15.484375 -1.875 L 15.484375 -8.765625 C 15.484375 -9.671875 15.019531 -10.226562 14.09375 -10.4375 L 12.5 -10.859375 L 12.5 -11.203125 L 22.3125 -11.203125 L 22.3125 -10.859375 L 21.828125 -10.71875 C 20.941406 -10.4375 20.5 -9.859375 20.5 -8.984375 L 20.5 -1.421875 C 19.289062 -0.753906 18.066406 -0.25 16.828125 0.09375 C 15.585938 0.445312 14.203125 0.625 12.671875 0.625 Z M 12.671875 0.625 "/></g></g></g><g fill="#451b5d" fill-opacity="1"><g transform="translate(74.304391, 35.508874)"><g><path d="M 0.765625 0 L 0.765625 -0.34375 L 1.5625 -0.65625 C 1.957031 -0.820312 2.226562 -1.035156 2.375 -1.296875 C 2.53125 -1.566406 2.609375 -1.9375 2.609375 -2.40625 L 2.609375 -20.578125 C 2.609375 -21.035156 2.546875 -21.398438 2.421875 -21.671875 C 2.296875 -21.941406 2.007812 -22.15625 1.5625 -22.3125 L 0.765625 -22.625 L 0.765625 -22.96875 L 17.4375 -22.96875 L 17.65625 -17.609375 L 17.296875 -17.609375 L 15.8125 -20.890625 C 15.59375 -21.304688 15.367188 -21.640625 15.140625 -21.890625 C 14.910156 -22.148438 14.5625 -22.28125 14.09375 -22.28125 L 7.828125 -22.28125 L 7.828125 -12.21875 L 11.5625 -12.21875 C 12.019531 -12.21875 12.367188 -12.335938 12.609375 -12.578125 C 12.859375 -12.828125 13.078125 -13.160156 13.265625 -13.578125 L 13.953125 -14.96875 L 14.3125 -14.96875 L 14.3125 -8.703125 L 13.953125 -8.703125 L 13.265625 -10.171875 C 13.054688 -10.585938 12.832031 -10.914062 12.59375 -11.15625 C 12.363281 -11.394531 12.019531 -11.515625 11.5625 -11.515625 L 7.828125 -11.515625 L 7.828125 -0.703125 L 14.859375 -0.703125 C 15.328125 -0.703125 15.6875 -0.820312 15.9375 -1.0625 C 16.195312 -1.300781 16.410156 -1.644531 16.578125 -2.09375 L 18 -5.359375 L 18.34375 -5.359375 L 18.140625 0 Z M 4.453125 -24.15625 L 4.109375 -24.578125 L 9.359375 -30.28125 L 9.859375 -30.28125 L 15.109375 -24.578125 L 14.765625 -24.15625 L 9.609375 -27.015625 Z M 4.453125 -24.15625 "/></g></g></g><g fill="#451b5d" fill-opacity="1"><g transform="translate(108.074091, 35.508874)"><g><path d="M 1.21875 0 L 1.21875 -0.34375 L 2.375 -0.703125 C 2.789062 -0.816406 3.085938 -1.039062 3.265625 -1.375 C 3.453125 -1.707031 3.546875 -2.109375 3.546875 -2.578125 L 3.546875 -19.328125 C 3.296875 -19.878906 3.09375 -20.289062 2.9375 -20.5625 C 2.789062 -20.84375 2.625 -21.082031 2.4375 -21.28125 C 2.25 -21.476562 1.992188 -21.726562 1.671875 -22.03125 L 1.078125 -22.625 L 1.078125 -22.96875 L 7.234375 -22.96875 L 18.796875 -7.203125 L 18.796875 -20.328125 C 18.796875 -20.796875 18.71875 -21.210938 18.5625 -21.578125 C 18.414062 -21.953125 18.113281 -22.195312 17.65625 -22.3125 L 16.5 -22.625 L 16.5 -22.96875 L 21.484375 -22.96875 L 21.484375 -22.625 L 20.546875 -22.3125 C 20.117188 -22.175781 19.859375 -21.929688 19.765625 -21.578125 C 19.679688 -21.234375 19.640625 -20.828125 19.640625 -20.359375 L 19.640625 0.109375 L 17.6875 0.109375 L 4.390625 -18.171875 L 4.390625 -2.578125 C 4.390625 -2.109375 4.457031 -1.710938 4.59375 -1.390625 C 4.726562 -1.066406 5.019531 -0.835938 5.46875 -0.703125 L 6.515625 -0.34375 L 6.515625 0 Z M 1.21875 0 "/></g></g></g><g fill="#451b5d" fill-opacity="1"><g transform="translate(144.559107, 35.508874)"><g><path d="M 12.734375 0.625 C 10.484375 0.625 8.445312 0.164062 6.625 -0.75 C 4.8125 -1.664062 3.367188 -3.023438 2.296875 -4.828125 C 1.234375 -6.640625 0.703125 -8.859375 0.703125 -11.484375 C 0.703125 -13.484375 1.023438 -15.234375 1.671875 -16.734375 C 2.316406 -18.242188 3.203125 -19.507812 4.328125 -20.53125 C 5.453125 -21.5625 6.75 -22.332031 8.21875 -22.84375 C 9.695312 -23.351562 11.265625 -23.609375 12.921875 -23.609375 C 14.242188 -23.609375 15.457031 -23.457031 16.5625 -23.15625 C 17.675781 -22.851562 18.722656 -22.429688 19.703125 -21.890625 L 19.84375 -17.609375 L 19.5 -17.609375 L 17.75 -20.40625 C 17.519531 -20.84375 17.265625 -21.238281 16.984375 -21.59375 C 16.710938 -21.957031 16.363281 -22.234375 15.9375 -22.421875 C 15.59375 -22.578125 15.25 -22.695312 14.90625 -22.78125 C 14.570312 -22.863281 14.148438 -22.90625 13.640625 -22.90625 C 12.296875 -22.90625 11.070312 -22.546875 9.96875 -21.828125 C 8.863281 -21.109375 7.976562 -19.914062 7.3125 -18.25 C 6.65625 -16.59375 6.328125 -14.328125 6.328125 -11.453125 C 6.328125 -8.597656 6.640625 -6.335938 7.265625 -4.671875 C 7.898438 -3.015625 8.753906 -1.832031 9.828125 -1.125 C 10.910156 -0.414062 12.125 -0.0625 13.46875 -0.0625 C 14.21875 -0.0625 14.8125 -0.113281 15.25 -0.21875 C 15.6875 -0.332031 16.128906 -0.492188 16.578125 -0.703125 C 17.015625 -0.878906 17.347656 -1.144531 17.578125 -1.5 C 17.804688 -1.863281 18.015625 -2.257812 18.203125 -2.6875 L 19.734375 -6.09375 L 20.09375 -6.09375 L 19.984375 -1.109375 C 19.003906 -0.597656 17.910156 -0.179688 16.703125 0.140625 C 15.503906 0.460938 14.179688 0.625 12.734375 0.625 Z M 12.734375 0.625 "/></g></g></g><g fill="#451b5d" fill-opacity="1"><g transform="translate(179.999781, 35.508874)"><g><path d="M 0.765625 0 L 0.765625 -0.34375 L 1.46875 -0.625 C 1.925781 -0.789062 2.226562 -1.007812 2.375 -1.28125 C 2.53125 -1.5625 2.609375 -1.9375 2.609375 -2.40625 L 2.609375 -20.578125 C 2.609375 -21.035156 2.535156 -21.40625 2.390625 -21.6875 C 2.253906 -21.96875 1.945312 -22.1875 1.46875 -22.34375 L 0.765625 -22.625 L 0.765625 -22.96875 L 9.71875 -22.96875 L 9.71875 -22.625 L 9.015625 -22.34375 C 8.546875 -22.1875 8.238281 -21.96875 8.09375 -21.6875 C 7.945312 -21.40625 7.875 -21.035156 7.875 -20.578125 L 7.875 -2.40625 C 7.875 -1.9375 7.945312 -1.566406 8.09375 -1.296875 C 8.238281 -1.035156 8.546875 -0.8125 9.015625 -0.625 L 9.71875 -0.34375 L 9.71875 0 Z M 0.765625 0 "/></g></g></g><g fill="#451b5d" fill-opacity="1"><g transform="translate(204.927206, 35.508874)"><g><path d="M 0.28125 0 L 0.28125 -0.34375 L 1.15625 -0.65625 C 1.613281 -0.84375 1.96875 -1.066406 2.21875 -1.328125 C 2.476562 -1.597656 2.691406 -1.976562 2.859375 -2.46875 L 10.03125 -23.046875 L 12.984375 -23.046875 L 20.046875 -2.328125 C 20.234375 -1.816406 20.441406 -1.425781 20.671875 -1.15625 C 20.910156 -0.894531 21.269531 -0.671875 21.75 -0.484375 L 22.171875 -0.34375 L 22.171875 0 L 13.328125 0 L 13.328125 -0.34375 L 13.859375 -0.515625 C 14.347656 -0.703125 14.644531 -0.960938 14.75 -1.296875 C 14.851562 -1.640625 14.832031 -2.039062 14.6875 -2.5 L 13.046875 -7.515625 L 5.328125 -7.515625 L 3.65625 -2.609375 C 3.488281 -2.097656 3.429688 -1.691406 3.484375 -1.390625 C 3.546875 -1.085938 3.820312 -0.84375 4.3125 -0.65625 L 5.078125 -0.34375 L 5.078125 0 Z M 5.5625 -8.21875 L 12.84375 -8.21875 L 9.328125 -19.046875 Z M 5.5625 -8.21875 "/></g></g></g></g></g></g><g clip-path="url(#84ffe1fb4d)"><path fill="#451b5d" d="M 145.765625 6.605469 C 145.800781 12.171875 144.324219 16.355469 144.324219 22.125 C 144.324219 31.214844 151.515625 33.984375 158.917969 34.554688 C 159.511719 34.601562 160.113281 34.632812 160.714844 34.671875 C 161.339844 34.714844 161.996094 34.6875 162.613281 34.742188 C 162.523438 34.730469 161.789062 34.796875 161.621094 34.804688 C 160.640625 34.867188 159.335938 34.839844 158.238281 34.890625 C 156.226562 34.988281 152.335938 35.238281 151.332031 37.203125 C 149.796875 40.210938 151.121094 49.089844 153.308594 50.089844 C 154.789062 50.769531 158.222656 48.820312 159.519531 47.929688 C 160.589844 47.195312 161.773438 46.261719 162.703125 45.375 C 164.558594 43.601562 166.496094 41.105469 167.589844 38.707031 C 171.585938 29.929688 169.078125 21.09375 163.191406 13.753906 C 162.9375 13.4375 162.699219 13.167969 162.457031 12.871094 C 162.226562 12.589844 161.921875 12.242188 161.671875 11.996094 L 160.882812 11.171875 C 159.875 10.128906 159.351562 9.742188 158.359375 8.839844 C 157.496094 8.054688 155.636719 6.765625 154.59375 6.101562 C 152.660156 4.867188 150.246094 3.699219 147.941406 3.050781 C 147.375 2.890625 145.800781 2.464844 145.238281 2.5 C 145.597656 3.605469 145.761719 5.320312 145.765625 6.605469 Z M 162.742188 34.972656 C 161.742188 35.09375 160.777344 35.179688 159.808594 35.320312 C 158.035156 35.574219 156.027344 35.933594 154.523438 36.578125 C 153.714844 36.925781 153.101562 37.269531 152.730469 38.058594 C 152.371094 38.824219 152.238281 39.832031 152.207031 40.800781 C 152.140625 42.882812 152.710938 47.3125 154.410156 48.445312 C 155.113281 48.914062 156.335938 48.472656 157.039062 48.21875 C 158.542969 47.667969 160.074219 46.667969 161.207031 45.804688 C 164.328125 43.425781 166.804688 40.242188 168.191406 36.386719 C 169.257812 33.429688 169.410156 31.128906 168.601562 28.058594 C 167.484375 23.828125 165.652344 20.261719 163.289062 16.96875 C 162.820312 16.3125 162.339844 15.75 161.835938 15.144531 L 160.246094 13.460938 C 158.972656 12.316406 158.085938 11.515625 156.554688 10.570312 C 154.273438 9.164062 152.269531 8.339844 149.476562 7.804688 C 149.308594 10.078125 149.238281 10.90625 148.679688 13.136719 C 148.273438 14.753906 147.800781 16.355469 147.390625 17.972656 C 146.5 21.515625 145.84375 25.058594 147.535156 28.332031 C 149.597656 32.335938 155.453125 33.78125 159.933594 34.296875 C 160.867188 34.40625 161.808594 34.496094 162.753906 34.550781 C 163.542969 34.609375 163.269531 34.910156 162.742188 34.972656 Z M 162.742188 34.972656 " fill-opacity="1" fill-rule="evenodd"/></g><path fill="#451b5d" d="M 153.714844 16.949219 C 155.359375 20.667969 158.027344 24.222656 160.675781 26.859375 C 164.167969 30.335938 167.433594 32.558594 166.429688 34.816406 C 165.371094 37.191406 160.488281 41.441406 157.597656 43.707031 C 159.707031 42.917969 166.613281 37.839844 167.796875 35.496094 C 169.765625 31.59375 157.375 21.628906 153.714844 16.949219 Z M 153.714844 16.949219 " fill-opacity="1" fill-rule="evenodd"/><g clip-path="url(#a3ea3cdaa4)"><g clip-path="url(#4a99a5bd9b)"><g clip-path="url(#5b8db722a4)"><path fill="#451b5d" d="M 190.824219 4.574219 C 190.359375 4.9375 191.089844 5.960938 191.140625 6.421875 C 191.265625 7.460938 191.113281 8.570312 190.898438 9.585938 C 190.492188 11.59375 189.582031 13.652344 188.460938 15.363281 C 187.09375 17.457031 185.203125 19.273438 183.355469 20.945312 C 182.644531 21.582031 181.953125 22.257812 181.199219 22.851562 C 181.09375 22.691406 180.964844 22.550781 180.804688 22.4375 C 182.40625 20.539062 183.6875 18.40625 184.339844 15.988281 C 185.140625 12.980469 185.570312 9.722656 185.054688 6.636719 C 184.925781 5.878906 184.742188 5.121094 184.527344 4.378906 C 184.335938 3.726562 184.144531 2.929688 183.828125 2.3125 C 183.542969 1.761719 182.890625 2.066406 182.957031 2.558594 C 183.039062 3.15625 183.691406 3.683594 183.894531 4.273438 C 184.945312 7.265625 184.910156 10.523438 184.414062 13.609375 C 183.976562 16.332031 183.027344 18.644531 181.355469 20.863281 C 181 21.328125 180.621094 21.796875 180.179688 22.191406 C 179.75 22.121094 179.207031 22.207031 178.535156 22.519531 C 176.15625 23.648438 175.960938 26.339844 174.867188 27.589844 C 168.023438 35.417969 166.824219 41.320312 165.398438 43.738281 C 163.339844 47.234375 160.570312 51.417969 159.742188 52.886719 C 158.640625 54.828125 158 56.46875 159.371094 55.957031 C 159.371094 55.957031 160.230469 54.644531 164.941406 48.832031 C 170.703125 41.722656 173.523438 40.578125 176 36.5625 C 178.019531 33.277344 178.433594 29.640625 178.074219 28.097656 C 178.074219 28.097656 180.808594 27.152344 181.488281 24.644531 C 181.59375 24.261719 181.585938 23.792969 181.453125 23.367188 C 182.246094 22.664062 183.027344 21.953125 183.796875 21.226562 C 185.410156 19.710938 187.070312 18.171875 188.347656 16.351562 C 189.941406 14.097656 190.964844 11.589844 191.492188 8.894531 C 191.644531 8.101562 191.808594 7.308594 191.804688 6.5 C 191.804688 6.074219 191.808594 3.8125 190.824219 4.574219 Z M 190.824219 4.574219 " fill-opacity="1" fill-rule="nonzero"/></g></g></g></g></g></svg>